<svg xmlns="http://www.w3.org/2000/svg" xmlns:xlink="http://www.w3.org/1999/xlink" aria-hidden="true" role="img" class="iconify iconify--logos" width="31.88" height="32" preserveAspectRatio="xMidYMid meet" viewBox="0 0 256 257"><defs><linearGradient id="IconifyId1813088fe1fbc01" x1="-.828%" x2="57.636%" y1="7.652%" y2="78.411%"><stop offset="0%" stop-color="#41D1FF"></stop><stop offset="100%" stop-color="#BD34FE"></stop></linearGradient><linearGradient id="IconifyId1813088fe1fbc02" x1="43.376%" x2="50.325%" y1="2.242%" y2="89.03%"><stop offset="0%" stop-color="#FFEA83"></stop><stop offset="8.333%" stop-color="#FFDD35"></stop><stop offset="100%" stop-color="#FFA800"></stop></linearGradient></defs><path fill="url(#IconifyId1813088fe1fbc01)" d="M255.153 37.938L134.897 252.676c-2.483 4.43-8.863 4.457-11.382.05L.847 37.916c-2.722-4.743.566-10.46 6.024-10.46h242.24c5.442 0 8.746 5.679 6.042 10.482z"></path><path fill="url(#IconifyId1813088fe1fbc02)" d="M135.95 25.253L231.857 37.54l-115.637 197.602L20.44 37.54l95.908-12.287c2.618-.335 5.27-.312 7.882.066l11.712 1.934z"></path><path fill="#322937" d="M153.21 34.654l-25.756-4.434c-1.332-.229-2.693-.214-4.018.045l-25.405 5.013c-.905.179-1.22 1.303-.53 1.908l60.22 52.803c.673.59 1.741.171 1.838-.731l3.054-28.572c.084-.783-.564-1.459-1.34-1.328l-23.063 4.3z"></path></svg>
